<?xml version="1.0" encoding="UTF-8"?>
<svg width="9px" height="6px" viewBox="0 0 9 6" version="1.1" xmlns="http://www.w3.org/2000/svg" xmlns:xlink="http://www.w3.org/1999/xlink">
    <!-- Generator: Sketch 49 (51002) - http://www.bohemiancoding.com/sketch -->
    <title>стрелочка </title>
    <desc>Created with Sketch.</desc>
    <defs></defs>
    <g id="Обучение" stroke="none" stroke-width="1" fill="none" fill-rule="evenodd">
        <g id="Обучение&gt;Тренинг&gt;Уроки" transform="translate(-219.000000, -86.000000)" fill="#1E201D" fill-rule="nonzero">
            <g id="Хлебные-крошки-" transform="translate(151.000000, 80.000000)">
                <g id="стрелочка-" transform="translate(68.000000, 6.000000)">
                    <path d="M5.45666139,0.0856905561 C5.34626725,-0.0285635187 5.16253434,-0.0285635187 5.04828027,0.0856905561 C4.93788613,0.196084696 4.93788613,0.3798176 5.04828027,0.489954411 L7.11900671,2.56068085 L0.285892516,2.56068085 C0.126605867,2.56093818 0,2.68754405 0,2.8468307 C0,3.00611735 0.126605867,3.13684048 0.285892516,3.13684048 L7.11900671,3.13684048 L5.04828027,5.20370698 C4.93788613,5.31796106 4.93788613,5.50195129 5.04828027,5.6120881 C5.16253434,5.72634217 5.34652457,5.72634217 5.45666139,5.6120881 L8.01759957,3.05114992 C8.13185364,2.94075578 8.13185364,2.75702288 8.01759957,2.64688607 L5.45666139,0.0856905561 Z" id="Shape"></path>
                </g>
            </g>
        </g>
    </g>
</svg>