<svg width="22px" height="18px" viewBox="0 0 22 18" version="1.1" xmlns="http://www.w3.org/2000/svg" xmlns:xlink="http://www.w3.org/1999/xlink">
    <g id="Обучение" stroke="none" stroke-width="1" fill="none" fill-rule="evenodd">
        <g id="Обучение&gt;лента-ответов-" transform="translate(-1030.000000, -1638.000000)" fill="#C2C2C2" fill-rule="nonzero">
            <g id="Задание-2" transform="translate(335.000000, 356.000000)">
                <g id="photo-camera" transform="translate(695.000000, 1282.000000)">
                    <path d="M10.9112195,6.54673168 C9.1032304,6.54673168 7.63785363,8.01276313 7.63785363,9.82009752 C7.63785363,11.6280866 9.1032304,13.0934634 10.9112195,13.0934634 C12.7187721,13.0934634 14.1845853,11.6280866 14.1845853,9.82009752 C14.1845853,8.01276313 12.7187721,6.54673168 10.9112195,6.54673168 Z M19.640195,3.27336584 L17.0215024,3.27336584 C16.6614321,3.27336584 16.2734292,2.99403862 16.1597343,2.65229923 L15.4828022,0.620848388 C15.3686708,0.279327218 14.9811043,0 14.6210341,0 L7.20140485,0 C6.84133461,0 6.45333164,0.279327218 6.33963674,0.621066612 L5.66270468,2.65251745 C5.54857332,2.99403862 5.16100681,3.27336584 4.80093657,3.27336584 L2.18224389,3.27336584 C0.982009752,3.27336584 0,4.25537559 0,5.45560973 L0,15.2757073 C0,16.4759414 0.982009752,17.4579511 2.18224389,17.4579511 L19.640195,17.4579511 C20.8404292,17.4579511 21.8224389,16.4759414 21.8224389,15.2757073 L21.8224389,5.45560973 C21.8224389,4.25537559 20.8404292,3.27336584 19.640195,3.27336584 Z M10.9112195,15.2757073 C7.89819532,15.2757073 5.45560973,12.8331217 5.45560973,9.82009752 C5.45560973,6.8072916 7.89819532,4.36448779 10.9112195,4.36448779 C13.9238072,4.36448779 16.3668292,6.8072916 16.3668292,9.82009752 C16.3668292,12.8331217 13.9238072,15.2757073 10.9112195,15.2757073 Z M18.8764097,6.98165289 C18.4548002,6.98165289 18.1126243,6.6399135 18.1126243,6.21786753 C18.1126243,5.79625801 18.4548002,5.45408216 18.8764097,5.45408216 C19.2984556,5.45408216 19.640195,5.79625801 19.640195,6.21786753 C19.640195,6.6399135 19.2982374,6.98165289 18.8764097,6.98165289 Z" id="Shape"></path>
                </g>
            </g>
        </g>
    </g>
</svg>