<?xml version="1.0" encoding="UTF-8"?>
<svg width="20px" height="20px" viewBox="0 0 20 20" version="1.1" xmlns="http://www.w3.org/2000/svg" xmlns:xlink="http://www.w3.org/1999/xlink">
    <!-- Generator: Sketch 49 (51002) - http://www.bohemiancoding.com/sketch -->
    <title>clock</title>
    <desc>Created with Sketch.</desc>
    <defs></defs>
    <g id="Обучение" stroke="none" stroke-width="1" fill="none" fill-rule="evenodd">
        <g id="Обучение&gt;Тренинг&gt;Уроки&gt;Урок-" transform="translate(-233.000000, -193.000000)" fill="#8191B2" fill-rule="nonzero">
            <g id="Group" transform="translate(152.000000, 193.000000)">
                <g id="clock" transform="translate(81.000000, 0.000000)">
                    <path d="M9.705625,19.411875 C4.35375,19.411875 0,15.058125 0,9.705625 C0,4.354375 4.35375,0 9.705625,0 C15.0575,0 19.41125,4.354375 19.41125,9.705625 C19.411875,15.058125 15.0575,19.411875 9.705625,19.411875 Z M9.705625,1.109375 C4.965625,1.109375 1.109375,4.965625 1.109375,9.705625 C1.109375,14.44625 4.965625,18.3025 9.705625,18.3025 C14.445625,18.3025 18.301875,14.44625 18.301875,9.705625 C18.3025,4.965625 14.44625,1.109375 9.705625,1.109375 Z" id="Shape"></path>
                    <path d="M12.53125,13.3825 C12.38875,13.3825 12.2475,13.32875 12.13875,13.22 L9.1625,10.24375 C9.058125,10.139375 9,9.99875 9,9.85125 L9,3.554375 C9,3.248125 9.248125,3 9.555,3 C9.86125,3 10.109375,3.2475 10.109375,3.554375 L10.109375,9.621875 L12.923125,12.435625 C13.14,12.6525 13.14,13.00375 12.923125,13.22 C12.814375,13.32875 12.6725,13.3825 12.53125,13.3825 Z" id="Shape"></path>
                </g>
            </g>
        </g>
    </g>
</svg>