<?xml version="1.0" encoding="UTF-8"?>
<svg width="25px" height="25px" viewBox="0 0 25 25" version="1.1" xmlns="http://www.w3.org/2000/svg" xmlns:xlink="http://www.w3.org/1999/xlink">
    <!-- Generator: Sketch 49 (51002) - http://www.bohemiancoding.com/sketch -->
    <title>stats</title>
    <desc>Created with Sketch.</desc>
    <defs></defs>
    <g id="Mobile-" stroke="none" stroke-width="1" fill="none" fill-rule="evenodd">
        <g id="02-меню--" transform="translate(-45.000000, -434.000000)" fill="#FFFFFF" fill-rule="nonzero" stroke="#1B2048" stroke-width="0.5">
            <g id="stats" transform="translate(46.000000, 435.000000)">
                <path d="M22.1877692,21.3755383 L1.62446167,21.3755383 L1.62446167,0.812230835 C1.62446167,0.356589147 1.26787252,0 0.812230835,0 C0.356589147,0 0,0.356589147 0,0.812230835 L0,22.1877692 C0,22.6434109 0.356589147,23 0.812230835,23 L22.1877692,23 C22.6434109,23 23,22.6434109 23,22.1877692 C23,21.7321275 22.6434109,21.3755383 22.1877692,21.3755383 Z" id="Shape"></path>
                <path d="M10,18.2068452 L10,6.79315476 C10,6.34821429 9.56097561,6 9,6 C8.43902439,6 8,6.34821429 8,6.79315476 L8,18.2068452 C8,18.6517857 8.43902439,19 9,19 C9.56097561,19 10,18.6517857 10,18.2068452 Z" id="Shape"></path>
                <path d="M6,18.2068452 L6,6.79315476 C6,6.34821429 5.56097561,6 5,6 C4.43902439,6 4,6.34821429 4,6.79315476 L4,18.2068452 C4,18.6517857 4.43902439,19 5,19 C5.56097561,19 6,18.6517857 6,18.2068452 Z" id="Shape"></path>
                <path d="M18,18.2068452 L18,6.79315476 C18,6.34821429 17.5609756,6 17,6 C16.4390244,6 16,6.34821429 16,6.79315476 L16,18.2068452 C16,18.6517857 16.4390244,19 17,19 C17.5609756,19 18,18.6517857 18,18.2068452 Z" id="Shape"></path>
                <path d="M22,17.2387268 L22,11.7612732 C22,11.3342175 21.5609756,11 21,11 C20.4390244,11 20,11.3342175 20,11.7612732 L20,17.2387268 C20,17.6657825 20.4390244,18 21,18 C21.5609756,18 22,17.6657825 22,17.2387268 Z" id="Shape"></path>
                <path d="M14,17.2387268 L14,11.7612732 C14,11.3342175 13.5609756,11 13,11 C12.4390244,11 12,11.3342175 12,11.7612732 L12,17.2387268 C12,17.6657825 12.4390244,18 13,18 C13.5609756,18 14,17.6657825 14,17.2387268 Z" id="Shape"></path>
            </g>
        </g>
    </g>
</svg>