<?xml version="1.0" encoding="UTF-8"?>
<svg width="19px" height="23px" viewBox="0 0 19 23" version="1.1" xmlns="http://www.w3.org/2000/svg" xmlns:xlink="http://www.w3.org/1999/xlink">
    <!-- Generator: Sketch 49 (51002) - http://www.bohemiancoding.com/sketch -->
    <title>list (1)</title>
    <desc>Created with Sketch.</desc>
    <defs></defs>
    <g id="Mobile-" stroke="none" stroke-width="1" fill="none" fill-rule="evenodd">
        <g id="02-меню--" transform="translate(-47.000000, -254.000000)" fill="#FFFFFF" fill-rule="nonzero">
            <g id="list-(1)" transform="translate(47.000000, 254.000000)">
                <path d="M13.1035319,0 L0,0 L0,23 L19,23 L19,5.5913 L13.1035319,0 Z M13.3404255,1.3087 L17.6198723,5.36666667 L13.3404255,5.36666667 L13.3404255,1.3087 Z M0.808510638,22.2333333 L0.808510638,0.766666667 L12.5319149,0.766666667 L12.5319149,6.13333333 L18.1914894,6.13333333 L18.1914894,22.2333333 L0.808510638,22.2333333 Z" id="Shape"></path>
                <path d="M15.5555556,9 L8.44444444,9 C8.19911111,9 8,9.2235 8,9.5 C8,9.7765 8.19911111,10 8.44444444,10 L15.5555556,10 C15.8008889,10 16,9.7765 16,9.5 C16,9.2235 15.8008889,9 15.5555556,9 Z" id="Shape"></path>
                <path d="M4.45849479,9.07314901 L3.02478256,10.2200603 L2.56910142,9.76442889 C2.43876394,9.63410563 2.22809058,9.63410563 2.09775311,9.76442889 C1.96741563,9.89475214 1.96741563,10.1054025 2.09775311,10.2357258 L2.76444096,10.9023409 C2.82910968,10.9670026 2.91444572,11 3.00011511,11 C3.07345078,11 3.14711978,10.9760019 3.20812172,10.9270056 L4.87484135,9.59377542 C5.01884593,9.478451 5.04184666,9.26880055 4.926843,9.12514499 C4.81217269,8.98115613 4.60216602,8.95815791 4.45849479,9.07314901 Z" id="Shape"></path>
                <path d="M15.5555556,13 L8.44444444,13 C8.19911111,13 8,13.2235 8,13.5 C8,13.7765 8.19911111,14 8.44444444,14 L15.5555556,14 C15.8008889,14 16,13.7765 16,13.5 C16,13.2235 15.8008889,13 15.5555556,13 Z" id="Shape"></path>
                <path d="M4.45849479,13.073149 L3.02478256,14.2200603 L2.56910142,13.7644289 C2.43876394,13.6341056 2.22809058,13.6341056 2.09775311,13.7644289 C1.96741563,13.8947521 1.96741563,14.1054025 2.09775311,14.2357258 L2.76444096,14.9023409 C2.82910968,14.9670026 2.91444572,15 3.00011511,15 C3.07345078,15 3.14711978,14.9760019 3.20812172,14.9270056 L4.87484135,13.5937754 C5.01884593,13.478451 5.04184666,13.2688006 4.926843,13.125145 C4.81217269,12.9811561 4.60216602,12.9581579 4.45849479,13.073149 Z" id="Shape"></path>
                <path d="M15.5555556,17 L8.44444444,17 C8.19911111,17 8,17.2235 8,17.5 C8,17.7765 8.19911111,18 8.44444444,18 L15.5555556,18 C15.8008889,18 16,17.7765 16,17.5 C16,17.2235 15.8008889,17 15.5555556,17 Z" id="Shape"></path>
                <path d="M4.45849479,17.073149 L3.02478256,18.2200603 L2.56910142,17.7644289 C2.43876394,17.6341056 2.22809058,17.6341056 2.09775311,17.7644289 C1.96741563,17.8947521 1.96741563,18.1054025 2.09775311,18.2357258 L2.76444096,18.9023409 C2.82910968,18.9670026 2.91444572,19 3.00011511,19 C3.07345078,19 3.14711978,18.9760019 3.20812172,18.9270056 L4.87484135,17.5937754 C5.01884593,17.478451 5.04184666,17.2688006 4.926843,17.125145 C4.81217269,16.9811561 4.60216602,16.9581579 4.45849479,17.073149 Z" id="Shape"></path>
            </g>
        </g>
    </g>
</svg>