<?xml version="1.0" encoding="UTF-8"?>
<svg width="22px" height="23px" viewBox="0 0 22 23" version="1.1" xmlns="http://www.w3.org/2000/svg" xmlns:xlink="http://www.w3.org/1999/xlink">
    <!-- Generator: Sketch 49 (51002) - http://www.bohemiancoding.com/sketch -->
    <title>newspaper</title>
    <desc>Created with Sketch.</desc>
    <defs></defs>
    <g id="Mobile-" stroke="none" stroke-width="1" fill="none" fill-rule="evenodd">
        <g id="02-меню--" transform="translate(-46.000000, -373.000000)" fill="#FFFFFF" fill-rule="nonzero">
            <g id="newspaper" transform="translate(46.000000, 373.000000)">
                <path d="M11,6 L6,6 L6,11 L11,11 L11,6 Z M10.2857143,10.2857143 L6.71428571,10.2857143 L6.71428571,6.71428571 L10.2857143,6.71428571 L10.2857143,10.2857143 Z" id="Shape"></path>
                <path d="M19.6111111,7 L13.3888889,7 C13.1738333,7 13,7.2235 13,7.5 C13,7.7765 13.1738333,8 13.3888889,8 L19.6111111,8 C19.8261667,8 20,7.7765 20,7.5 C20,7.2235 19.8261667,7 19.6111111,7 Z" id="Shape"></path>
                <path d="M19.6111111,9 L13.3888889,9 C13.1738333,9 13,9.2235 13,9.5 C13,9.7765 13.1738333,10 13.3888889,10 L19.6111111,10 C19.8261667,10 20,9.7765 20,9.5 C20,9.2235 19.8261667,9 19.6111111,9 Z" id="Shape"></path>
                <path d="M19.6285714,12 L7.37142857,12 C7.16602857,12 7,12.2235 7,12.5 C7,12.7765 7.16602857,13 7.37142857,13 L19.6285714,13 C19.8339714,13 20,12.7765 20,12.5 C20,12.2235 19.8339714,12 19.6285714,12 Z" id="Shape"></path>
                <path d="M13.5882353,15 L7.41176471,15 C7.18405882,15 7,15.2235 7,15.5 C7,15.7765 7.18405882,16 7.41176471,16 L13.5882353,16 C13.8159412,16 14,15.7765 14,15.5 C14,15.2235 13.8159412,15 13.5882353,15 Z" id="Shape"></path>
                <path d="M13.5882353,17 L7.41176471,17 C7.18405882,17 7,17.2235 7,17.5 C7,17.7765 7.18405882,18 7.41176471,18 L13.5882353,18 C13.8159412,18 14,17.7765 14,17.5 C14,17.2235 13.8159412,17 13.5882353,17 Z" id="Shape"></path>
                <path d="M13.5882353,19 L7.41176471,19 C7.18405882,19 7,19.2235 7,19.5 C7,19.7765 7.18405882,20 7.41176471,20 L13.5882353,20 C13.8159412,20 14,19.7765 14,19.5 C14,19.2235 13.8159412,19 13.5882353,19 Z" id="Shape"></path>
                <path d="M15,20 L20,20 L20,15 L15,15 L15,20 Z M15.7142857,15.7142857 L19.2857143,15.7142857 L19.2857143,19.2857143 L15.7142857,19.2857143 L15.7142857,15.7142857 Z" id="Shape"></path>
                <path d="M22,4.98333333 C22,4.97681667 21.9965862,4.97145 21.9962069,4.96493333 L21.9962069,0 L3.79310345,0 L3.79310345,11.5 L0,11.5 L0,20.7 C0,21.96845 1.02072414,23 2.27586207,23 L19.7241379,23 C20.977,23 21.9962069,21.9696 21.9962069,20.7038333 L21.9962069,5.00173333 C21.9965862,4.99521667 22,4.98985 22,4.98333333 Z M21.2375862,0.766666667 L21.2375862,4.6 L4.55172414,4.6 L4.55172414,0.766666667 L21.2375862,0.766666667 Z M0.75862069,20.7 L0.75862069,12.2666667 L3.79310345,12.2666667 L3.79310345,20.7 C3.79310345,21.5456333 3.11262069,22.2333333 2.27586207,22.2333333 C1.43910345,22.2333333 0.75862069,21.5456333 0.75862069,20.7 Z M19.7241379,22.2333333 L3.971,22.2333333 C3.97706897,22.2264333 3.98124138,22.2183833 3.98693103,22.2114833 C4.06431034,22.1221667 4.13486207,22.0267167 4.19782759,21.9259 C4.20806897,21.9098 4.21755172,21.8937 4.22741379,21.8768333 C4.28886207,21.7733333 4.34310345,21.6652333 4.38786207,21.5517667 C4.39393103,21.53605 4.39924138,21.5203333 4.40493103,21.5046167 C4.44855172,21.3873167 4.4842069,21.2661833 4.50848276,21.1408333 C4.51075862,21.1293333 4.51151724,21.11745 4.5137931,21.1063333 C4.53731034,20.9744667 4.55172414,20.8387667 4.55172414,20.7 L4.55172414,11.5 L4.55172414,5.36666667 L21.2375862,5.36666667 L21.2375862,20.7038333 C21.2375862,21.5471667 20.5586207,22.2333333 19.7241379,22.2333333 Z" id="Shape"></path>
            </g>
        </g>
    </g>
</svg>