
<svg width="16px" height="16px" viewBox="0 0 16 16" version="1.1" xmlns="http://www.w3.org/2000/svg" xmlns:xlink="http://www.w3.org/1999/xlink">
    <g id="Symbols" stroke="none" stroke-width="1" fill="none" fill-rule="evenodd">
        <g id="search" transform="translate(-9.000000, -7.000000)" fill="#8191B2" fill-rule="nonzero">
            <g id="Group" transform="translate(1.000000, 0.000000)">
                <g id="magnifying-glass" transform="translate(8.000000, 7.000000)">
                    <path d="M15.0931733,14.1950671 L11.4196695,10.5215633 C12.3302494,9.41140432 12.8790921,7.98940287 12.8790921,6.43954603 C12.8790921,2.88454241 9.99454965,0 6.43954603,0 C2.88142399,0 0,2.88454241 0,6.43954603 C0,9.99454965 2.88142399,12.8790921 6.43954603,12.8790921 C7.98940287,12.8790921 9.4082859,12.3333678 10.5184449,11.4227879 L14.1919487,15.0931733 C14.4414226,15.3426472 14.8436993,15.3426472 15.0931733,15.0931733 C15.3426472,14.8468177 15.3426472,14.4414226 15.0931733,14.1950671 Z M6.43954603,11.5974197 C3.59242471,11.5974197 1.27855393,9.28354893 1.27855393,6.43954603 C1.27855393,3.59554313 3.59242471,1.27855393 6.43954603,1.27855393 C9.28354893,1.27855393 11.6005381,3.59554313 11.6005381,6.43954603 C11.6005381,9.28354893 9.28354893,11.5974197 6.43954603,11.5974197 Z" id="Shape"></path>
                </g>
            </g>
        </g>
    </g>
</svg>