<?xml version="1.0" encoding="UTF-8"?>
<svg width="25px" height="22px" viewBox="0 0 25 22" version="1.1" xmlns="http://www.w3.org/2000/svg" xmlns:xlink="http://www.w3.org/1999/xlink">
    <!-- Generator: Sketch 49 (51002) - http://www.bohemiancoding.com/sketch -->
    <title>Shape</title>
    <desc>Created with Sketch.</desc>
    <defs></defs>
    <g id="Mobile-" stroke="none" stroke-width="1" fill="none" fill-rule="evenodd">
        <g id="01-мой-профиль-" transform="translate(-337.000000, -1309.000000)" fill="#C2C2C2" fill-rule="nonzero">
            <g id="выполненное-задание-" transform="translate(0.000000, 434.000000)">
                <g id="поле-ввода-" transform="translate(14.000000, 870.000000)">
                    <g id="отправить" transform="translate(323.000000, 5.000000)">
                        <path d="M2.9184555,21.5028783 L8.34271984,19.2476226 L23.7374829,12.8469157 C24.7574093,12.4228591 25.2404572,11.2522797 24.8164007,10.2323533 C24.6134688,9.74426841 24.2255678,9.35636741 23.7374829,9.15343551 L2.9184555,0.497472903 C1.89852911,0.0734163655 0.727949668,0.55646432 0.303893131,1.57639071 C0.164562798,1.91150329 0.119043374,2.27821222 0.172212874,2.63721973 L0.901471932,7.56127356 C1.03569148,8.46754177 1.76851975,9.16673675 2.68008992,9.25826155 L20.0292339,11.0001756 L2.68008992,12.7420896 C1.76851975,12.8336144 1.03569148,13.5328094 0.901471932,14.4390776 L0.172212874,19.3631315 C0.0103897203,20.4557828 0.764975093,21.4727354 1.85762648,21.6345585 C2.21663399,21.687728 2.58334291,21.6422086 2.9184555,21.5028783 Z" id="Shape"></path>
                    </g>
                </g>
            </g>
        </g>
    </g>
</svg>