<?xml version="1.0" encoding="UTF-8"?>
<svg width="16px" height="15px" viewBox="0 0 16 15" version="1.1" xmlns="http://www.w3.org/2000/svg" xmlns:xlink="http://www.w3.org/1999/xlink">
    <!-- Generator: Sketch 49 (51002) - http://www.bohemiancoding.com/sketch -->
    <title>Shape</title>
    <desc>Created with Sketch.</desc>
    <defs></defs>
    <g id="Продажи" stroke="none" stroke-width="1" fill="none" fill-rule="evenodd" opacity="0.15">
        <g id="Продажи&gt;Воронки" transform="translate(-360.000000, -189.000000)" fill="#000000" fill-rule="nonzero">
            <g id="error" transform="translate(360.000000, 189.000000)">
                <path d="M13.6596065,2.19419547 C10.5390818,-0.731254192 5.46134144,-0.731542783 2.34050894,2.19419547 C-0.780323562,5.11993372 -0.780015727,9.87995806 2.34050894,12.8056963 C5.46103361,15.7314346 10.538774,15.7314346 13.6596065,12.8056963 C16.7801312,9.87995806 16.7801312,5.11964513 13.6596065,2.19419547 Z M11.1562913,10.4588721 C10.915872,10.6842619 10.5261528,10.6842619 10.2857335,10.4588721 L8.00005772,8.31608199 L5.60571611,10.5607449 C5.36529688,10.7861346 4.97557761,10.7861346 4.73515838,10.5607449 C4.49473915,10.3353551 4.49473915,9.96999853 4.73515838,9.74460875 L7.12949999,7.49994589 L4.84382418,5.35715574 C4.60340495,5.13176596 4.60340495,4.76612083 4.84382418,4.54101964 C5.08424341,4.31562986 5.47396268,4.31562986 5.71438191,4.54101964 L8.00005772,6.68380979 L10.1767599,4.64318095 C10.4171791,4.41779117 10.8068984,4.41779117 11.0473176,4.64318095 C11.2877369,4.86857073 11.2877369,5.23392727 11.0473176,5.45931705 L8.87061545,7.49994589 L11.1562913,9.64273604 C11.3967105,9.86812582 11.3967105,10.2334824 11.1562913,10.4588721 Z" id="Shape"></path>
            </g>
        </g>
    </g>
</svg>