                                    <svg width="20px" height="20px" viewBox="0 0 20 20" version="1.1" xmlns="http://www.w3.org/2000/svg" xmlns:xlink="http://www.w3.org/1999/xlink">

                                        <g id="Обучение" stroke="none" stroke-width="1" fill="none" fill-rule="evenodd">
                                            <g id="Обучение&gt;лента-ответов-" transform="translate(-1064.000000, -1637.000000)" fill="#C2C2C2" fill-rule="nonzero">
                                                <g id="Задание-2" transform="translate(335.000000, 356.000000)">
                                                    <g id="smiling-emoticon-square-face" transform="translate(729.000000, 1281.000000)">
                                                        <path d="M16.6870156,2.85988553 C12.8743571,-0.953141584 6.67123096,-0.953141584 2.85930961,2.85896406 C-0.953348917,6.6710697 -0.952980331,12.8743801 2.85967819,16.6872229 C6.67123096,20.4991443 12.8743571,20.4991443 16.686647,16.6864858 C20.498937,12.8743801 20.4987527,6.67143829 16.6870156,2.85988553 Z M15.620142,15.6203494 C12.3961161,18.8443753 7.15002479,18.8447439 3.92581458,15.620718 C0.701051487,12.3961392 0.701420073,7.14949495 3.92581458,3.92546903 C7.1498405,0.701627407 12.3957475,0.701258821 15.6205106,3.92583762 C18.8445366,7.14986354 18.844168,12.3965078 15.620142,15.6203494 Z M6.12590726,7.12682688 C6.12590726,6.49580683 6.63768959,5.98402451 7.26870964,5.98402451 C7.89954539,5.98402451 8.41132772,6.49562254 8.41132772,7.12682688 C8.41132772,7.75821552 7.89954539,8.26981355 7.26870964,8.26981355 C6.63768959,8.26981355 6.12590726,7.75821552 6.12590726,7.12682688 Z M11.3076803,7.12682688 C11.3076803,6.49580683 11.8198312,5.98402451 12.4508512,5.98402451 C13.081687,5.98402451 13.5934693,6.49562254 13.5934693,7.12682688 C13.5934693,7.75821552 13.0818713,8.26981355 12.4508512,8.26981355 C11.8198312,8.26981355 11.3076803,7.75821552 11.3076803,7.12682688 Z M14.0094191,11.8073223 C13.3011802,13.4451363 11.6425411,14.5033481 9.78412805,14.5033481 C7.8857234,14.5033481 6.21731671,13.4397918 5.53358879,11.7936846 C5.41637829,11.5119002 5.54999089,11.1882813 5.83214384,11.0710708 C5.9014381,11.0425053 5.97331246,11.0288676 6.04408107,11.0288676 C6.26080991,11.0288676 6.46648117,11.1569514 6.55475763,11.3698101 C7.06653995,12.6019947 8.33410885,13.3977729 9.78412805,13.3977729 C11.2013431,13.3977729 12.4615402,12.6014418 12.9945163,11.3685201 C13.1157812,11.0882101 13.4412431,10.9590205 13.7213688,11.0804697 C14.0014945,11.201919 14.1306841,11.5271965 14.0094191,11.8073223 Z" id="Shape"></path>
                                                    </g>
                                                </g>
                                            </g>
                                        </g>
                                    </svg>