<?xml version="1.0" encoding="UTF-8"?>
<svg width="26px" height="23px" viewBox="0 0 26 23" version="1.1" xmlns="http://www.w3.org/2000/svg" xmlns:xlink="http://www.w3.org/1999/xlink">
    <!-- Generator: Sketch 49 (51002) - http://www.bohemiancoding.com/sketch -->
    <title>group (2)</title>
    <desc>Created with Sketch.</desc>
    <defs></defs>
    <g id="Mobile-" stroke="none" stroke-width="1" fill="none" fill-rule="evenodd">
        <g id="02-меню--" transform="translate(-45.000000, -314.000000)" fill-rule="nonzero" stroke="#FFFFFF">
            <g id="group-(2)" transform="translate(46.000000, 315.000000)">
                <path d="M13.7076364,15.5205 L10.5134545,14.8035 L10.5134545,13.83 C10.6807273,13.581 10.8363636,13.263 10.9978182,12.933 C11.1185455,12.687 11.3003636,12.315 11.376,12.2265 C11.8952727,11.703 12.448,11.052 12.6196364,10.1925 C12.7912727,9.336 12.5745455,8.8965 12.4494545,8.724 C12.4494545,8.121 12.4494545,7.0215 12.2458182,6.2145 C12.2225455,5.241 12.0378182,4.662 11.5941818,4.164 C11.2610909,3.792 10.7912727,3.711 10.4145455,3.645 C10.2923636,3.624 10.1090909,3.5925 10.0538182,3.564 C9.41818182,3.1995 8.77236364,3.021 7.97236364,3 C6.35781818,3.063 4.37381818,4.1235 3.70909091,6.0255 C3.52,6.5655 3.52,7.3725 3.53745455,8.2965 L3.536,8.6625 C3.41963636,8.898 3.20290909,9.3375 3.37454545,10.1925 C3.54618182,11.0535 4.09890909,11.7045 4.61381818,12.2235 C4.69381818,12.3165 4.87854545,12.69 5.00072727,12.9375 C5.16363636,13.266 5.31927273,13.5825 5.48654545,13.83 L5.48654545,14.8035 L2.29236364,15.5205 C0.964363636,15.816 0,17.049 0,18.4515 L0,20.25 C0,20.664 0.325818182,21 0.727272727,21 L15.2727273,21 C15.6741818,21 16,20.664 16,20.25 L16,18.4515 C16,17.049 15.0356364,15.816 13.7076364,15.5205 Z" id="Shape"></path>
                <path d="M21.7003891,12.5205 L18.4961089,11.8035 L18.4961089,10.83 C18.6639105,10.581 18.8200389,10.263 18.9820039,9.933 C19.1031128,9.687 19.2855058,9.315 19.3613813,9.2265 C19.8822957,8.703 20.4367704,8.052 20.6089494,7.1925 C20.7811284,6.336 20.563716,5.8965 20.4382296,5.724 C20.4382296,5.121 20.4382296,4.0215 20.2339494,3.2145 C20.2106031,2.2425 20.0252918,1.662 19.5802529,1.1655 C19.2461089,0.7935 18.7748054,0.7125 18.3968872,0.6465 C18.2743191,0.6255 18.0904669,0.5925 18.0350195,0.5655 C17.3973735,0.1995 16.7495136,0.021 15.9469844,0 C14.5389105,0.0555 12.8565175,0.864 12,2.322 C12.4333658,2.451 12.9309339,2.673 13.3570039,3.147 C14.0252918,3.8955 14.3390078,4.758 14.391537,6.0105 C14.563716,6.801 14.5958171,7.707 14.6016537,8.3505 C14.7986381,8.8275 14.9357977,9.5355 14.7431907,10.497 C14.5053502,11.6835 13.8166342,12.5475 13.2037938,13.179 C13.1366732,13.3035 13.0535019,13.4775 12.9907588,13.6065 C12.9820039,13.626 12.9717899,13.6425 12.963035,13.662 L14.7140078,14.0535 C16.5671206,14.466 17.9343385,16.089 18.1254864,18 L23.270428,18 C23.6731518,18 24,17.664 24,17.25 L24,15.4515 C24,14.049 23.0325875,12.816 21.7003891,12.5205 Z" id="Shape"></path>
            </g>
        </g>
    </g>
</svg>